<svg xmlns="http://www.w3.org/2000/svg" xmlns:xlink="http://www.w3.org/1999/xlink" width="200" zoomAndPan="magnify" viewBox="0 0 150 44.999999" height="60" preserveAspectRatio="xMidYMid meet" version="1.0"><defs><g/><clipPath id="d85e448cc0"><path d="M 10 6 L 26.273438 6 L 26.273438 18.75 L 10 18.75 Z M 10 6 " clip-rule="nonzero"/></clipPath><clipPath id="5e680afea4"><path d="M 3.773438 1 L 18 1 L 18 15 L 3.773438 15 Z M 3.773438 1 " clip-rule="nonzero"/></clipPath></defs><g fill="#231f20" fill-opacity="1"><g transform="translate(23.79312, 31.708949)"><g><path d="M 11.53125 -4.59375 C 11.53125 -3.769531 11.320312 -2.988281 10.90625 -2.25 C 10.5 -1.519531 9.859375 -0.925781 8.984375 -0.46875 C 8.109375 -0.0195312 6.976562 0.203125 5.59375 0.203125 C 4.90625 0.203125 4.300781 0.171875 3.78125 0.109375 C 3.257812 0.046875 2.773438 -0.0507812 2.328125 -0.1875 C 1.878906 -0.332031 1.414062 -0.519531 0.9375 -0.75 L 0.9375 -4.390625 C 1.75 -3.972656 2.570312 -3.65625 3.40625 -3.4375 C 4.25 -3.21875 5.007812 -3.109375 5.6875 -3.109375 C 6.09375 -3.109375 6.425781 -3.15625 6.6875 -3.25 C 6.945312 -3.351562 7.132812 -3.488281 7.25 -3.65625 C 7.375 -3.820312 7.4375 -4.019531 7.4375 -4.25 C 7.4375 -4.507812 7.34375 -4.726562 7.15625 -4.90625 C 6.976562 -5.09375 6.6875 -5.285156 6.28125 -5.484375 C 5.882812 -5.679688 5.359375 -5.929688 4.703125 -6.234375 C 4.148438 -6.492188 3.644531 -6.757812 3.1875 -7.03125 C 2.738281 -7.3125 2.351562 -7.628906 2.03125 -7.984375 C 1.707031 -8.335938 1.457031 -8.753906 1.28125 -9.234375 C 1.113281 -9.710938 1.03125 -10.273438 1.03125 -10.921875 C 1.03125 -11.890625 1.269531 -12.703125 1.75 -13.359375 C 2.226562 -14.023438 2.894531 -14.523438 3.75 -14.859375 C 4.613281 -15.191406 5.609375 -15.359375 6.734375 -15.359375 C 7.722656 -15.359375 8.613281 -15.242188 9.40625 -15.015625 C 10.195312 -14.796875 10.90625 -14.546875 11.53125 -14.265625 L 10.28125 -11.109375 C 9.632812 -11.398438 8.992188 -11.632812 8.359375 -11.8125 C 7.734375 -11.988281 7.148438 -12.078125 6.609375 -12.078125 C 6.265625 -12.078125 5.976562 -12.035156 5.75 -11.953125 C 5.53125 -11.867188 5.363281 -11.753906 5.25 -11.609375 C 5.144531 -11.460938 5.09375 -11.296875 5.09375 -11.109375 C 5.09375 -10.867188 5.179688 -10.65625 5.359375 -10.46875 C 5.546875 -10.289062 5.851562 -10.09375 6.28125 -9.875 C 6.71875 -9.65625 7.3125 -9.375 8.0625 -9.03125 C 8.789062 -8.695312 9.414062 -8.335938 9.9375 -7.953125 C 10.457031 -7.566406 10.851562 -7.109375 11.125 -6.578125 C 11.394531 -6.046875 11.53125 -5.382812 11.53125 -4.59375 Z M 11.53125 -4.59375 "/></g></g></g><g fill="#231f20" fill-opacity="1"><g transform="translate(36.028215, 31.708949)"><g><path d="M 15.796875 -7.59375 C 15.796875 -6.425781 15.65625 -5.363281 15.375 -4.40625 C 15.09375 -3.445312 14.65625 -2.625 14.0625 -1.9375 C 13.46875 -1.25 12.707031 -0.71875 11.78125 -0.34375 C 10.851562 0.0195312 9.738281 0.203125 8.4375 0.203125 C 7.164062 0.203125 6.066406 0.0195312 5.140625 -0.34375 C 4.210938 -0.71875 3.445312 -1.25 2.84375 -1.9375 C 2.25 -2.625 1.804688 -3.445312 1.515625 -4.40625 C 1.222656 -5.363281 1.078125 -6.429688 1.078125 -7.609375 C 1.078125 -9.179688 1.335938 -10.546875 1.859375 -11.703125 C 2.378906 -12.867188 3.179688 -13.769531 4.265625 -14.40625 C 5.359375 -15.050781 6.753906 -15.375 8.453125 -15.375 C 10.179688 -15.375 11.582031 -15.050781 12.65625 -14.40625 C 13.738281 -13.769531 14.53125 -12.867188 15.03125 -11.703125 C 15.539062 -10.535156 15.796875 -9.164062 15.796875 -7.59375 Z M 5.390625 -7.59375 C 5.390625 -6.675781 5.488281 -5.890625 5.6875 -5.234375 C 5.894531 -4.578125 6.222656 -4.070312 6.671875 -3.71875 C 7.117188 -3.375 7.707031 -3.203125 8.4375 -3.203125 C 9.1875 -3.203125 9.785156 -3.375 10.234375 -3.71875 C 10.679688 -4.070312 11 -4.578125 11.1875 -5.234375 C 11.382812 -5.890625 11.484375 -6.675781 11.484375 -7.59375 C 11.484375 -8.957031 11.253906 -10.035156 10.796875 -10.828125 C 10.347656 -11.617188 9.566406 -12.015625 8.453125 -12.015625 C 7.710938 -12.015625 7.117188 -11.832031 6.671875 -11.46875 C 6.222656 -11.113281 5.894531 -10.601562 5.6875 -9.9375 C 5.488281 -9.28125 5.390625 -8.5 5.390625 -7.59375 Z M 5.390625 -7.59375 "/></g></g></g><g fill="#231f20" fill-opacity="1"><g transform="translate(52.921342, 31.708949)"><g><path d="M 8.375 -12 C 7.894531 -12 7.460938 -11.894531 7.078125 -11.6875 C 6.703125 -11.488281 6.378906 -11.195312 6.109375 -10.8125 C 5.835938 -10.425781 5.628906 -9.953125 5.484375 -9.390625 C 5.347656 -8.835938 5.28125 -8.207031 5.28125 -7.5 C 5.28125 -6.550781 5.398438 -5.75 5.640625 -5.09375 C 5.878906 -4.445312 6.242188 -3.957031 6.734375 -3.625 C 7.234375 -3.300781 7.859375 -3.140625 8.609375 -3.140625 C 9.285156 -3.140625 9.929688 -3.234375 10.546875 -3.421875 C 11.171875 -3.609375 11.800781 -3.832031 12.4375 -4.09375 L 12.4375 -0.625 C 11.769531 -0.332031 11.085938 -0.125 10.390625 0 C 9.691406 0.132812 8.945312 0.203125 8.15625 0.203125 C 6.507812 0.203125 5.164062 -0.117188 4.125 -0.765625 C 3.082031 -1.421875 2.3125 -2.328125 1.8125 -3.484375 C 1.320312 -4.648438 1.078125 -6 1.078125 -7.53125 C 1.078125 -8.675781 1.238281 -9.722656 1.5625 -10.671875 C 1.882812 -11.628906 2.351562 -12.457031 2.96875 -13.15625 C 3.59375 -13.851562 4.359375 -14.394531 5.265625 -14.78125 C 6.179688 -15.164062 7.234375 -15.359375 8.421875 -15.359375 C 9.148438 -15.359375 9.921875 -15.269531 10.734375 -15.09375 C 11.546875 -14.925781 12.335938 -14.65625 13.109375 -14.28125 L 11.859375 -11.0625 C 11.304688 -11.320312 10.742188 -11.539062 10.171875 -11.71875 C 9.609375 -11.90625 9.007812 -12 8.375 -12 Z M 8.375 -12 "/></g></g></g><g fill="#231f20" fill-opacity="1"><g transform="translate(66.678066, 31.708949)"><g><path d="M 1.640625 0 L 1.640625 -15.140625 L 5.75 -15.140625 L 5.75 0 Z M 1.640625 0 "/></g></g></g><g fill="#231f20" fill-opacity="1"><g transform="translate(74.058463, 31.708949)"><g><path d="M 10.921875 0 L 10.171875 -2.84375 L 5.265625 -2.84375 L 4.5 0 L 0 0 L 4.9375 -15.203125 L 10.390625 -15.203125 L 15.390625 0 Z M 9.328125 -6.1875 L 8.671875 -8.671875 C 8.609375 -8.941406 8.507812 -9.328125 8.375 -9.828125 C 8.238281 -10.328125 8.109375 -10.84375 7.984375 -11.375 C 7.859375 -11.914062 7.757812 -12.359375 7.6875 -12.703125 C 7.625 -12.359375 7.535156 -11.929688 7.421875 -11.421875 C 7.304688 -10.910156 7.1875 -10.40625 7.0625 -9.90625 C 6.945312 -9.414062 6.847656 -9.003906 6.765625 -8.671875 L 6.109375 -6.1875 Z M 9.328125 -6.1875 "/></g></g></g><g fill="#231f20" fill-opacity="1"><g transform="translate(89.450674, 31.708949)"><g><path d="M 1.640625 0 L 1.640625 -15.140625 L 5.71875 -15.140625 L 5.71875 -3.296875 L 11.546875 -3.296875 L 11.546875 0 Z M 1.640625 0 "/></g></g></g><g fill="#000000" fill-opacity="1"><g transform="translate(101.781396, 31.708949)"><g/></g></g><g fill="#a6a6a6" fill-opacity="1"><g transform="translate(107.27749, 31.708949)"><g><path d="M 1.640625 -15.140625 L 6.921875 -15.140625 C 9.109375 -15.140625 10.664062 -14.8125 11.59375 -14.15625 C 12.53125 -13.507812 13 -12.582031 13 -11.375 C 13 -10.707031 12.878906 -10.140625 12.640625 -9.671875 C 12.398438 -9.210938 12.097656 -8.847656 11.734375 -8.578125 C 11.367188 -8.304688 11 -8.125 10.625 -8.03125 L 10.625 -7.9375 C 11.039062 -7.832031 11.453125 -7.660156 11.859375 -7.421875 C 12.265625 -7.179688 12.601562 -6.820312 12.875 -6.34375 C 13.15625 -5.875 13.296875 -5.238281 13.296875 -4.4375 C 13.296875 -3.507812 13.0625 -2.710938 12.59375 -2.046875 C 12.125 -1.390625 11.457031 -0.882812 10.59375 -0.53125 C 9.738281 -0.175781 8.71875 0 7.53125 0 L 1.640625 0 Z M 5.71875 -9.328125 L 6.953125 -9.328125 C 7.628906 -9.328125 8.101562 -9.46875 8.375 -9.75 C 8.65625 -10.03125 8.796875 -10.367188 8.796875 -10.765625 C 8.796875 -11.179688 8.640625 -11.5 8.328125 -11.71875 C 8.015625 -11.9375 7.53125 -12.046875 6.875 -12.046875 L 5.71875 -12.046875 Z M 5.71875 -6.34375 L 5.71875 -3.15625 L 7.171875 -3.15625 C 7.878906 -3.15625 8.375 -3.304688 8.65625 -3.609375 C 8.9375 -3.921875 9.078125 -4.304688 9.078125 -4.765625 C 9.078125 -5.035156 9.015625 -5.289062 8.890625 -5.53125 C 8.773438 -5.769531 8.570312 -5.960938 8.28125 -6.109375 C 7.988281 -6.265625 7.585938 -6.34375 7.078125 -6.34375 Z M 5.71875 -6.34375 "/></g></g></g><g fill="#a6a6a6" fill-opacity="1"><g transform="translate(121.562119, 31.708949)"><g><path d="M 10.625 0 L 1.640625 0 L 1.640625 -15.140625 L 10.625 -15.140625 L 10.625 -11.859375 L 5.71875 -11.859375 L 5.71875 -9.46875 L 10.265625 -9.46875 L 10.265625 -6.1875 L 5.71875 -6.1875 L 5.71875 -3.328125 L 10.625 -3.328125 Z M 10.625 0 "/></g></g></g><g fill="#a6a6a6" fill-opacity="1"><g transform="translate(133.196845, 31.708949)"><g><path d="M 10.625 0 L 1.640625 0 L 1.640625 -15.140625 L 10.625 -15.140625 L 10.625 -11.859375 L 5.71875 -11.859375 L 5.71875 -9.46875 L 10.265625 -9.46875 L 10.265625 -6.1875 L 5.71875 -6.1875 L 5.71875 -3.328125 L 10.625 -3.328125 Z M 10.625 0 "/></g></g></g><g clip-path="url(#d85e448cc0)"><path fill="#231f20" d="M 26.261719 11.019531 C 26.269531 11.886719 26.042969 12.625 25.644531 13.320312 C 25.359375 13.8125 25.007812 14.253906 24.59375 14.648438 C 24.320312 14.910156 24.03125 15.15625 23.726562 15.378906 C 23.425781 15.601562 23.214844 15.886719 23.058594 16.214844 C 22.886719 16.585938 22.703125 16.953125 22.558594 17.335938 C 22.402344 17.75 22.277344 18.179688 22.191406 18.617188 C 22.1875 18.640625 22.183594 18.664062 22.175781 18.6875 C 22.148438 18.742188 22.082031 18.75 22.046875 18.703125 C 22.019531 18.667969 22 18.628906 21.976562 18.59375 C 21.730469 18.195312 21.445312 17.824219 21.109375 17.496094 C 20.953125 17.339844 20.78125 17.203125 20.605469 17.066406 C 20.453125 16.945312 20.277344 16.867188 20.097656 16.796875 C 20.042969 16.773438 19.984375 16.773438 19.925781 16.777344 C 19.621094 16.796875 19.3125 16.820312 19.007812 16.835938 C 18.683594 16.859375 18.355469 16.878906 18.03125 16.890625 C 17.875 16.898438 17.71875 16.898438 17.558594 16.886719 C 17.375 16.871094 17.1875 16.878906 17.003906 16.863281 C 16.832031 16.847656 16.660156 16.832031 16.488281 16.816406 C 15.996094 16.773438 15.511719 16.6875 15.035156 16.550781 C 14.347656 16.351562 13.679688 16.097656 13.039062 15.773438 C 12.546875 15.527344 12.078125 15.238281 11.65625 14.882812 C 11.171875 14.46875 10.789062 13.976562 10.582031 13.363281 C 10.570312 13.328125 10.558594 13.289062 10.550781 13.253906 C 10.539062 13.207031 10.558594 13.183594 10.605469 13.183594 C 10.691406 13.175781 10.777344 13.167969 10.863281 13.164062 C 11.253906 13.152344 11.648438 13.113281 12.039062 13.082031 C 12.542969 13.042969 13.039062 12.96875 13.539062 12.902344 C 13.84375 12.859375 14.148438 12.820312 14.441406 12.714844 C 14.535156 12.683594 14.628906 12.652344 14.722656 12.613281 C 14.777344 12.59375 14.820312 12.589844 14.871094 12.625 C 14.949219 12.675781 15.035156 12.714844 15.117188 12.753906 C 15.398438 12.886719 15.667969 13.046875 15.945312 13.1875 C 16.230469 13.339844 16.523438 13.488281 16.816406 13.628906 C 17.179688 13.804688 17.527344 14.007812 17.898438 14.167969 C 18.28125 14.332031 18.664062 14.492188 19.050781 14.636719 C 19.253906 14.710938 19.464844 14.769531 19.667969 14.84375 C 19.734375 14.871094 19.789062 14.855469 19.835938 14.808594 C 19.914062 14.734375 19.992188 14.660156 20.0625 14.582031 C 20.277344 14.351562 20.496094 14.125 20.703125 13.890625 C 21.039062 13.515625 21.375 13.140625 21.648438 12.71875 C 21.773438 12.527344 21.886719 12.335938 22 12.140625 C 22.003906 12.136719 22.007812 12.128906 22.007812 12.121094 C 22.222656 11.582031 22.40625 11.035156 22.34375 10.445312 C 22.3125 10.125 22.230469 9.816406 22.023438 9.554688 C 21.957031 9.46875 21.878906 9.394531 21.789062 9.335938 C 21.503906 9.144531 21.195312 9.007812 20.851562 8.960938 C 20.625 8.929688 20.402344 8.96875 20.191406 9.058594 C 20.003906 9.132812 19.832031 9.234375 19.691406 9.382812 C 19.65625 9.417969 19.621094 9.453125 19.585938 9.484375 C 19.359375 9.691406 19.199219 9.941406 19.054688 10.207031 C 18.957031 10.386719 18.871094 10.574219 18.78125 10.761719 C 18.738281 10.851562 18.734375 10.851562 18.664062 10.789062 C 18.480469 10.625 18.296875 10.460938 18.121094 10.289062 C 18.019531 10.199219 17.921875 10.105469 17.808594 10.03125 C 17.777344 10.007812 17.75 9.988281 17.722656 9.960938 C 17.675781 9.914062 17.671875 9.882812 17.707031 9.820312 C 17.851562 9.566406 17.96875 9.300781 18.070312 9.027344 C 18.289062 8.441406 18.457031 7.835938 18.578125 7.222656 C 18.609375 7.066406 18.636719 6.90625 18.648438 6.746094 C 18.660156 6.578125 18.734375 6.554688 18.847656 6.546875 C 19.238281 6.515625 19.625 6.441406 20.019531 6.410156 C 20.300781 6.386719 20.582031 6.371094 20.863281 6.367188 C 21.160156 6.363281 21.453125 6.367188 21.742188 6.398438 C 22.390625 6.46875 23.015625 6.617188 23.613281 6.882812 C 24.140625 7.117188 24.605469 7.433594 24.996094 7.859375 C 25.339844 8.234375 25.609375 8.652344 25.824219 9.109375 C 26.003906 9.496094 26.132812 9.898438 26.203125 10.320312 C 26.242188 10.570312 26.265625 10.828125 26.261719 11.019531 Z M 18.800781 11.777344 C 18.503906 11.511719 18.210938 11.246094 17.9375 10.957031 C 17.800781 10.8125 17.652344 10.671875 17.5 10.542969 C 17.433594 10.488281 17.40625 10.488281 17.34375 10.554688 C 17.300781 10.597656 17.265625 10.648438 17.226562 10.695312 C 17.058594 10.898438 16.90625 11.117188 16.707031 11.296875 C 16.476562 11.503906 16.246094 11.707031 16.007812 11.902344 C 15.875 12.011719 15.746094 12.121094 15.617188 12.234375 C 15.574219 12.269531 15.574219 12.296875 15.621094 12.332031 C 15.65625 12.359375 15.699219 12.382812 15.742188 12.402344 C 15.992188 12.519531 16.234375 12.65625 16.464844 12.804688 C 17.097656 13.199219 17.773438 13.5 18.472656 13.761719 C 18.785156 13.878906 19.105469 13.992188 19.414062 14.121094 C 19.46875 14.140625 19.5 14.144531 19.542969 14.105469 C 19.679688 13.984375 19.8125 13.855469 19.953125 13.738281 C 20.285156 13.457031 20.5625 13.128906 20.792969 12.761719 C 21.089844 12.285156 21.3125 11.769531 21.527344 11.253906 C 21.609375 11.050781 21.640625 10.84375 21.628906 10.625 C 21.613281 10.417969 21.550781 10.21875 21.421875 10.050781 C 21.28125 9.867188 21.082031 9.773438 20.851562 9.746094 C 20.515625 9.699219 20.207031 9.765625 19.941406 9.976562 C 19.742188 10.136719 19.59375 10.339844 19.476562 10.566406 C 19.445312 10.632812 19.417969 10.695312 19.375 10.753906 C 19.296875 10.871094 19.234375 10.992188 19.175781 11.121094 C 19.085938 11.308594 18.996094 11.5 18.90625 11.691406 C 18.890625 11.730469 18.878906 11.773438 18.851562 11.804688 C 18.824219 11.804688 18.8125 11.789062 18.800781 11.777344 Z M 18.800781 11.777344 " fill-opacity="1" fill-rule="nonzero"/></g><path fill="#545454" d="M 17.449219 0.246094 C 17.449219 0.132812 17.449219 0.132812 17.539062 0.113281 C 17.710938 0.078125 17.886719 0.078125 18.058594 0.046875 C 18.199219 0.0234375 18.339844 0.046875 18.472656 0.0117188 C 18.511719 0.00390625 18.554688 0.0078125 18.59375 0.0117188 C 18.699219 0.0234375 18.738281 0.0664062 18.761719 0.171875 C 18.777344 0.25 18.789062 0.324219 18.761719 0.402344 C 18.757812 0.421875 18.761719 0.445312 18.761719 0.464844 C 18.761719 0.648438 18.734375 0.828125 18.722656 1.007812 C 18.710938 1.128906 18.699219 1.253906 18.691406 1.378906 C 18.660156 1.976562 18.6875 2.578125 18.667969 3.179688 C 18.660156 3.414062 18.660156 3.648438 18.652344 3.882812 C 18.648438 3.953125 18.648438 3.949219 18.570312 3.945312 C 18.460938 3.941406 18.351562 3.910156 18.238281 3.917969 C 18.179688 3.921875 18.152344 3.894531 18.136719 3.835938 C 18.019531 3.445312 17.941406 3.046875 17.851562 2.648438 C 17.796875 2.402344 17.746094 2.15625 17.699219 1.910156 C 17.664062 1.734375 17.636719 1.554688 17.617188 1.375 C 17.59375 1.160156 17.558594 0.949219 17.523438 0.734375 C 17.5 0.566406 17.472656 0.394531 17.449219 0.246094 Z M 22.746094 1.03125 C 22.457031 0.828125 22.148438 0.65625 21.863281 0.445312 C 21.8125 0.40625 21.796875 0.410156 21.765625 0.464844 C 21.699219 0.574219 21.636719 0.6875 21.574219 0.796875 C 21.496094 0.9375 21.417969 1.078125 21.34375 1.21875 C 21.273438 1.351562 21.191406 1.476562 21.136719 1.617188 C 21.003906 1.945312 20.878906 2.277344 20.757812 2.609375 C 20.601562 3.039062 20.449219 3.472656 20.273438 3.894531 C 20.234375 3.988281 20.25 4.046875 20.335938 4.101562 C 20.375 4.125 20.414062 4.148438 20.453125 4.175781 C 20.523438 4.234375 20.539062 4.230469 20.597656 4.15625 C 20.773438 3.921875 20.945312 3.691406 21.125 3.460938 C 21.425781 3.066406 21.710938 2.664062 21.992188 2.257812 C 22.117188 2.078125 22.246094 1.898438 22.375 1.722656 C 22.507812 1.535156 22.640625 1.351562 22.773438 1.167969 C 22.789062 1.144531 22.8125 1.125 22.8125 1.09375 C 22.800781 1.0625 22.773438 1.046875 22.746094 1.03125 Z M 24.8125 4.289062 C 24.757812 4.199219 24.703125 4.113281 24.648438 4.027344 C 24.535156 3.839844 24.398438 3.671875 24.269531 3.496094 C 24.214844 3.414062 24.15625 3.414062 24.074219 3.46875 C 23.867188 3.609375 23.679688 3.777344 23.484375 3.929688 C 23.3125 4.0625 23.140625 4.203125 22.964844 4.339844 C 22.796875 4.472656 22.625 4.605469 22.453125 4.742188 C 22.226562 4.921875 22 5.105469 21.777344 5.292969 C 21.710938 5.34375 21.644531 5.402344 21.582031 5.457031 C 21.550781 5.488281 21.554688 5.511719 21.589844 5.535156 C 21.648438 5.582031 21.710938 5.625 21.761719 5.675781 C 21.828125 5.746094 21.886719 5.734375 21.964844 5.699219 C 22.199219 5.589844 22.4375 5.488281 22.679688 5.386719 C 22.945312 5.273438 23.210938 5.164062 23.476562 5.050781 C 23.730469 4.945312 23.980469 4.832031 24.234375 4.726562 C 24.414062 4.648438 24.59375 4.574219 24.769531 4.484375 C 24.8125 4.464844 24.847656 4.441406 24.839844 4.386719 C 24.84375 4.351562 24.828125 4.320312 24.8125 4.289062 Z M 24.8125 4.289062 " fill-opacity="1" fill-rule="nonzero"/><g clip-path="url(#5e680afea4)"><path fill="#231f20" d="M 10.164062 12.671875 C 9.988281 12.671875 9.8125 12.671875 9.636719 12.671875 C 9.40625 12.667969 9.171875 12.683594 8.945312 12.726562 C 8.898438 12.734375 8.855469 12.714844 8.804688 12.722656 C 8.628906 12.75 8.5 12.855469 8.386719 12.984375 C 8.152344 13.257812 7.964844 13.5625 7.796875 13.882812 C 7.691406 14.082031 7.589844 14.28125 7.496094 14.484375 C 7.449219 14.59375 7.394531 14.695312 7.332031 14.796875 C 7.304688 14.839844 7.273438 14.878906 7.238281 14.910156 C 7.175781 14.960938 7.117188 14.945312 7.097656 14.871094 C 7.082031 14.824219 7.078125 14.773438 7.074219 14.726562 C 7.070312 14.664062 7.070312 14.605469 7.070312 14.542969 C 7.074219 14.136719 7.074219 13.734375 7.046875 13.328125 C 7.019531 12.929688 6.996094 12.527344 6.921875 12.132812 C 6.917969 12.117188 6.917969 12.105469 6.914062 12.089844 C 6.90625 12.003906 6.863281 11.949219 6.78125 11.902344 C 6.488281 11.742188 6.226562 11.539062 5.960938 11.339844 C 5.691406 11.144531 5.429688 10.941406 5.179688 10.726562 C 5.035156 10.601562 4.921875 10.449219 4.796875 10.304688 C 4.535156 10.003906 4.378906 9.648438 4.234375 9.28125 C 4.089844 8.925781 3.988281 8.554688 3.90625 8.179688 C 3.820312 7.785156 3.769531 7.386719 3.808594 6.984375 C 3.871094 6.335938 4 5.699219 4.28125 5.101562 C 4.511719 4.601562 4.796875 4.132812 5.164062 3.71875 C 5.621094 3.203125 6.125 2.738281 6.746094 2.410156 C 6.964844 2.292969 7.175781 2.164062 7.390625 2.046875 C 7.777344 1.839844 8.1875 1.699219 8.613281 1.589844 C 8.96875 1.496094 9.332031 1.441406 9.699219 1.414062 C 10.109375 1.382812 10.523438 1.382812 10.933594 1.402344 C 11.3125 1.421875 11.691406 1.441406 12.066406 1.464844 C 12.703125 1.507812 13.324219 1.617188 13.914062 1.867188 C 14.253906 2.007812 14.578125 2.183594 14.90625 2.34375 C 15.273438 2.519531 15.617188 2.730469 15.941406 2.972656 C 16.460938 3.363281 16.867188 3.851562 17.164062 4.425781 C 17.445312 4.96875 17.664062 5.535156 17.800781 6.128906 C 17.832031 6.277344 17.847656 6.429688 17.859375 6.582031 C 17.882812 6.800781 17.871094 7.015625 17.855469 7.230469 C 17.820312 7.722656 17.722656 8.203125 17.523438 8.65625 C 17.273438 9.234375 16.945312 9.757812 16.5625 10.253906 C 16.453125 10.394531 16.34375 10.535156 16.242188 10.683594 C 16.167969 10.785156 16.082031 10.875 15.984375 10.953125 C 15.257812 11.550781 14.460938 12.015625 13.546875 12.277344 C 13.148438 12.390625 12.746094 12.488281 12.335938 12.554688 C 12.179688 12.582031 12.023438 12.589844 11.867188 12.609375 C 11.566406 12.644531 11.261719 12.648438 10.957031 12.664062 C 10.695312 12.675781 10.429688 12.667969 10.164062 12.667969 C 10.164062 12.667969 10.164062 12.671875 10.164062 12.671875 Z M 7.003906 6.894531 C 7.007812 6.894531 7.011719 6.894531 7.011719 6.894531 C 7.011719 7.097656 7.003906 7.300781 7.015625 7.503906 C 7.027344 7.761719 7.054688 8.019531 7.070312 8.277344 C 7.082031 8.453125 7.105469 8.625 7.125 8.796875 C 7.15625 9.042969 7.1875 9.289062 7.222656 9.535156 C 7.246094 9.699219 7.273438 9.863281 7.3125 10.027344 C 7.351562 10.160156 7.441406 10.230469 7.566406 10.261719 C 7.6875 10.285156 7.808594 10.300781 7.929688 10.308594 C 8.3125 10.324219 8.691406 10.292969 9.070312 10.226562 C 9.167969 10.210938 9.242188 10.175781 9.296875 10.117188 C 9.316406 10.09375 9.324219 10.046875 9.371094 9.953125 C 9.378906 9.9375 9.386719 9.921875 9.390625 9.910156 C 9.632812 9.960938 9.839844 9.992188 9.992188 10.011719 C 10.277344 10.046875 10.503906 10.058594 10.71875 10.070312 C 10.972656 10.085938 11.167969 10.089844 11.242188 10.089844 C 12.019531 10.101562 12.605469 10.105469 13.1875 9.898438 C 13.316406 9.851562 13.457031 9.789062 13.601562 9.675781 C 13.769531 9.546875 13.90625 9.390625 13.992188 9.191406 C 14.070312 9.015625 14.117188 8.832031 14.152344 8.640625 C 14.222656 8.277344 14.269531 7.910156 14.269531 7.542969 C 14.265625 7.265625 14.273438 6.988281 14.25 6.710938 C 14.230469 6.460938 14.183594 6.21875 14.09375 5.984375 C 14.011719 5.773438 13.871094 5.609375 13.675781 5.484375 C 13.417969 5.324219 13.136719 5.296875 12.851562 5.324219 C 12.664062 5.339844 12.476562 5.371094 12.289062 5.394531 C 12.125 5.414062 11.957031 5.410156 11.792969 5.398438 C 11.675781 5.390625 11.59375 5.332031 11.558594 5.214844 C 11.550781 5.1875 11.542969 5.160156 11.539062 5.132812 C 11.484375 4.886719 11.445312 4.636719 11.410156 4.386719 C 11.378906 4.175781 11.328125 3.96875 11.226562 3.777344 C 11.101562 3.539062 10.773438 3.277344 10.386719 3.351562 C 10.125 3.402344 9.910156 3.523438 9.761719 3.746094 C 9.632812 3.945312 9.546875 4.171875 9.476562 4.398438 C 9.398438 4.667969 9.34375 4.945312 9.265625 5.210938 C 9.195312 5.433594 9.136719 5.65625 9.03125 5.863281 C 9 5.921875 8.964844 5.976562 8.925781 6.023438 C 8.898438 6.058594 8.875 6.066406 8.835938 6.042969 C 8.769531 6.003906 8.695312 5.996094 8.617188 5.996094 C 8.398438 6 8.175781 5.992188 7.953125 6.015625 C 7.769531 6.03125 7.582031 6.050781 7.398438 6.066406 C 7.320312 6.074219 7.242188 6.078125 7.167969 6.105469 C 7.058594 6.144531 7.003906 6.214844 7.003906 6.328125 C 7.003906 6.515625 7.003906 6.707031 7.003906 6.894531 Z M 12.511719 9.453125 C 12.589844 9.453125 12.703125 9.4375 12.851562 9.414062 C 13.027344 9.382812 13.183594 9.320312 13.292969 9.175781 C 13.371094 9.074219 13.417969 8.960938 13.453125 8.839844 C 13.5 8.683594 13.503906 8.519531 13.511719 8.355469 C 13.527344 8.074219 13.542969 7.792969 13.554688 7.515625 C 13.566406 7.210938 13.578125 6.902344 13.558594 6.597656 C 13.546875 6.441406 13.523438 6.289062 13.445312 6.148438 C 13.410156 6.089844 13.371094 6.039062 13.300781 6.023438 C 13.222656 6.007812 13.140625 5.996094 13.058594 6 C 12.703125 6.023438 12.355469 6.082031 12 6.089844 C 11.816406 6.09375 11.636719 6.082031 11.460938 6.039062 C 11.214844 5.976562 11.035156 5.839844 10.945312 5.597656 C 10.882812 5.433594 10.851562 5.261719 10.832031 5.089844 C 10.804688 4.824219 10.808594 4.757812 10.785156 4.492188 C 10.742188 4.066406 10.703125 3.992188 10.640625 3.960938 C 10.550781 3.917969 10.425781 3.972656 10.359375 4.019531 C 10.246094 4.101562 10.222656 4.234375 10.195312 4.3125 C 10.113281 4.554688 10.066406 4.800781 10.015625 5.046875 C 9.957031 5.339844 9.894531 5.632812 9.78125 5.910156 C 9.648438 6.242188 9.457031 6.523438 9.121094 6.675781 C 9.070312 6.699219 9.066406 6.734375 9.074219 6.78125 C 9.097656 6.933594 9.113281 7.082031 9.140625 7.234375 C 9.210938 7.632812 9.234375 8.039062 9.28125 8.4375 C 9.308594 8.683594 9.339844 8.925781 9.355469 9.171875 C 9.359375 9.28125 9.375 9.285156 9.480469 9.304688 C 9.515625 9.3125 9.554688 9.324219 9.59375 9.328125 C 9.964844 9.386719 10.339844 9.421875 10.710938 9.453125 C 11.027344 9.476562 11.339844 9.480469 11.664062 9.496094 C 12.039062 9.46875 12.320312 9.457031 12.511719 9.453125 Z M 7.613281 6.84375 C 7.613281 6.894531 7.605469 6.941406 7.613281 6.992188 C 7.644531 7.277344 7.648438 7.566406 7.671875 7.851562 C 7.683594 8.03125 7.703125 8.207031 7.722656 8.382812 C 7.757812 8.679688 7.804688 8.972656 7.847656 9.269531 C 7.863281 9.378906 7.878906 9.484375 7.894531 9.59375 C 7.902344 9.636719 7.917969 9.660156 7.972656 9.652344 C 8.195312 9.621094 8.414062 9.605469 8.636719 9.582031 C 8.714844 9.574219 8.71875 9.566406 8.722656 9.492188 C 8.722656 9.464844 8.722656 9.441406 8.71875 9.414062 C 8.691406 9.261719 8.699219 9.105469 8.6875 8.949219 C 8.671875 8.65625 8.628906 8.371094 8.589844 8.082031 C 8.550781 7.796875 8.507812 7.511719 8.464844 7.226562 C 8.4375 7.042969 8.417969 6.855469 8.363281 6.671875 C 8.339844 6.589844 8.339844 6.585938 8.253906 6.59375 C 8.070312 6.605469 7.890625 6.621094 7.710938 6.640625 C 7.601562 6.652344 7.605469 6.65625 7.605469 6.769531 C 7.605469 6.792969 7.605469 6.816406 7.605469 6.84375 C 7.609375 6.84375 7.609375 6.84375 7.613281 6.84375 Z M 7.613281 6.84375 " fill-opacity="1" fill-rule="nonzero"/></g></svg>