<svg xmlns="http://www.w3.org/2000/svg" xmlns:xlink="http://www.w3.org/1999/xlink" width="100" zoomAndPan="magnify" viewBox="0 0 75 37.5" height="50" preserveAspectRatio="xMidYMid meet" version="1.0"><defs><g/><clipPath id="24064d24b4"><path d="M 58.214844 2.542969 L 67 2.542969 L 67 11 L 58.214844 11 Z M 58.214844 2.542969 " clip-rule="nonzero"/></clipPath><clipPath id="0f80f50984"><path d="M 62 6 L 70.542969 6 L 70.542969 14.382812 L 62 14.382812 Z M 62 6 " clip-rule="nonzero"/></clipPath></defs><g fill="#0c0a09" fill-opacity="1"><g transform="translate(3.7066, 27.114709)"><g><path d="M 8.390625 -3.421875 C 8.390625 -2.910156 8.300781 -2.429688 8.125 -1.984375 C 7.945312 -1.535156 7.6875 -1.140625 7.34375 -0.796875 C 7.007812 -0.460938 6.597656 -0.195312 6.109375 0 C 5.617188 0.207031 5.066406 0.3125 4.453125 0.3125 C 3.847656 0.3125 3.300781 0.226562 2.8125 0.0625 C 2.332031 -0.101562 1.914062 -0.335938 1.5625 -0.640625 C 1.21875 -0.941406 0.953125 -1.304688 0.765625 -1.734375 C 0.585938 -2.171875 0.5 -2.648438 0.5 -3.171875 L 0.5 -3.8125 L 2.921875 -3.8125 L 2.921875 -3.40625 C 2.921875 -2.34375 3.414062 -1.8125 4.40625 -1.8125 C 4.875 -1.8125 5.222656 -1.929688 5.453125 -2.171875 C 5.679688 -2.421875 5.796875 -2.765625 5.796875 -3.203125 C 5.796875 -3.640625 5.617188 -4.015625 5.265625 -4.328125 C 4.921875 -4.648438 4.390625 -4.992188 3.671875 -5.359375 C 3.304688 -5.554688 2.941406 -5.769531 2.578125 -6 C 2.210938 -6.226562 1.882812 -6.484375 1.59375 -6.765625 C 1.3125 -7.054688 1.078125 -7.382812 0.890625 -7.75 C 0.710938 -8.125 0.625 -8.546875 0.625 -9.015625 C 0.625 -9.484375 0.707031 -9.929688 0.875 -10.359375 C 1.039062 -10.796875 1.285156 -11.179688 1.609375 -11.515625 C 1.941406 -11.847656 2.347656 -12.113281 2.828125 -12.3125 C 3.304688 -12.507812 3.859375 -12.609375 4.484375 -12.609375 C 5.054688 -12.609375 5.570312 -12.515625 6.03125 -12.328125 C 6.5 -12.148438 6.894531 -11.90625 7.21875 -11.59375 C 7.539062 -11.28125 7.789062 -10.914062 7.96875 -10.5 C 8.15625 -10.082031 8.25 -9.625 8.25 -9.125 L 8.25 -8.625 L 5.859375 -8.625 L 5.859375 -9.015625 C 5.859375 -9.441406 5.742188 -9.796875 5.515625 -10.078125 C 5.285156 -10.359375 4.9375 -10.5 4.46875 -10.5 C 4.070312 -10.5 3.757812 -10.382812 3.53125 -10.15625 C 3.3125 -9.9375 3.203125 -9.644531 3.203125 -9.28125 C 3.203125 -8.84375 3.378906 -8.472656 3.734375 -8.171875 C 4.097656 -7.867188 4.675781 -7.515625 5.46875 -7.109375 C 5.90625 -6.878906 6.300781 -6.640625 6.65625 -6.390625 C 7.007812 -6.148438 7.316406 -5.882812 7.578125 -5.59375 C 7.835938 -5.300781 8.035156 -4.972656 8.171875 -4.609375 C 8.316406 -4.253906 8.390625 -3.859375 8.390625 -3.421875 Z M 8.390625 -3.421875 "/></g></g></g><g fill="#0c0a09" fill-opacity="1"><g transform="translate(12.593275, 27.114709)"><g><path d="M 8.859375 -3.453125 C 8.859375 -2.898438 8.765625 -2.390625 8.578125 -1.921875 C 8.390625 -1.460938 8.125 -1.066406 7.78125 -0.734375 C 7.4375 -0.398438 7.015625 -0.144531 6.515625 0.03125 C 6.015625 0.21875 5.445312 0.3125 4.8125 0.3125 C 4.175781 0.3125 3.601562 0.21875 3.09375 0.03125 C 2.59375 -0.144531 2.171875 -0.398438 1.828125 -0.734375 C 1.484375 -1.066406 1.21875 -1.460938 1.03125 -1.921875 C 0.851562 -2.390625 0.765625 -2.898438 0.765625 -3.453125 L 0.765625 -8.859375 C 0.765625 -9.398438 0.851562 -9.898438 1.03125 -10.359375 C 1.21875 -10.816406 1.484375 -11.210938 1.828125 -11.546875 C 2.171875 -11.878906 2.59375 -12.140625 3.09375 -12.328125 C 3.601562 -12.515625 4.175781 -12.609375 4.8125 -12.609375 C 5.445312 -12.609375 6.015625 -12.515625 6.515625 -12.328125 C 7.015625 -12.140625 7.4375 -11.878906 7.78125 -11.546875 C 8.125 -11.210938 8.390625 -10.816406 8.578125 -10.359375 C 8.765625 -9.898438 8.859375 -9.398438 8.859375 -8.859375 Z M 6.1875 -9 C 6.1875 -9.414062 6.066406 -9.75 5.828125 -10 C 5.585938 -10.257812 5.25 -10.390625 4.8125 -10.390625 C 4.375 -10.390625 4.035156 -10.257812 3.796875 -10 C 3.554688 -9.75 3.4375 -9.414062 3.4375 -9 L 3.4375 -3.3125 C 3.4375 -2.894531 3.554688 -2.554688 3.796875 -2.296875 C 4.035156 -2.046875 4.375 -1.921875 4.8125 -1.921875 C 5.25 -1.921875 5.585938 -2.046875 5.828125 -2.296875 C 6.066406 -2.554688 6.1875 -2.894531 6.1875 -3.3125 Z M 6.1875 -9 "/></g></g></g><g fill="#0c0a09" fill-opacity="1"><g transform="translate(22.200485, 27.114709)"><g><path d="M 8.765625 -3.265625 C 8.765625 -2.753906 8.679688 -2.28125 8.515625 -1.84375 C 8.347656 -1.40625 8.101562 -1.023438 7.78125 -0.703125 C 7.457031 -0.378906 7.050781 -0.128906 6.5625 0.046875 C 6.082031 0.222656 5.519531 0.3125 4.875 0.3125 C 4.226562 0.3125 3.644531 0.210938 3.125 0.015625 C 2.613281 -0.179688 2.179688 -0.453125 1.828125 -0.796875 C 1.484375 -1.140625 1.21875 -1.539062 1.03125 -2 C 0.851562 -2.46875 0.765625 -2.96875 0.765625 -3.5 L 0.765625 -8.8125 C 0.765625 -9.34375 0.851562 -9.835938 1.03125 -10.296875 C 1.21875 -10.765625 1.484375 -11.171875 1.828125 -11.515625 C 2.179688 -11.859375 2.613281 -12.128906 3.125 -12.328125 C 3.644531 -12.523438 4.226562 -12.625 4.875 -12.625 C 5.519531 -12.625 6.082031 -12.535156 6.5625 -12.359375 C 7.050781 -12.179688 7.457031 -11.929688 7.78125 -11.609375 C 8.101562 -11.285156 8.347656 -10.90625 8.515625 -10.46875 C 8.679688 -10.03125 8.765625 -9.550781 8.765625 -9.03125 L 8.765625 -7.84375 L 6.390625 -7.84375 L 6.390625 -8.984375 C 6.390625 -9.410156 6.265625 -9.75 6.015625 -10 C 5.773438 -10.257812 5.410156 -10.390625 4.921875 -10.390625 C 4.421875 -10.390625 4.046875 -10.257812 3.796875 -10 C 3.554688 -9.738281 3.4375 -9.410156 3.4375 -9.015625 L 3.4375 -3.265625 C 3.4375 -2.878906 3.554688 -2.554688 3.796875 -2.296875 C 4.046875 -2.046875 4.421875 -1.921875 4.921875 -1.921875 C 5.410156 -1.921875 5.773438 -2.046875 6.015625 -2.296875 C 6.265625 -2.554688 6.390625 -2.898438 6.390625 -3.328125 L 6.390625 -4.46875 L 8.765625 -4.46875 Z M 8.765625 -3.265625 "/></g></g></g><g fill="#0c0a09" fill-opacity="1"><g transform="translate(31.512092, 27.114709)"><g><path d="M 0.890625 0 L 0.890625 -12.3125 L 3.53125 -12.3125 L 3.53125 0 Z M 0.890625 0 "/></g></g></g><g fill="#0c0a09" fill-opacity="1"><g transform="translate(35.946194, 27.114709)"><g><path d="M 8.859375 -3.453125 C 8.859375 -2.898438 8.765625 -2.390625 8.578125 -1.921875 C 8.390625 -1.460938 8.125 -1.066406 7.78125 -0.734375 C 7.4375 -0.398438 7.015625 -0.144531 6.515625 0.03125 C 6.015625 0.21875 5.445312 0.3125 4.8125 0.3125 C 4.175781 0.3125 3.601562 0.21875 3.09375 0.03125 C 2.59375 -0.144531 2.171875 -0.398438 1.828125 -0.734375 C 1.484375 -1.066406 1.21875 -1.460938 1.03125 -1.921875 C 0.851562 -2.390625 0.765625 -2.898438 0.765625 -3.453125 L 0.765625 -8.859375 C 0.765625 -9.398438 0.851562 -9.898438 1.03125 -10.359375 C 1.21875 -10.816406 1.484375 -11.210938 1.828125 -11.546875 C 2.171875 -11.878906 2.59375 -12.140625 3.09375 -12.328125 C 3.601562 -12.515625 4.175781 -12.609375 4.8125 -12.609375 C 5.445312 -12.609375 6.015625 -12.515625 6.515625 -12.328125 C 7.015625 -12.140625 7.4375 -11.878906 7.78125 -11.546875 C 8.125 -11.210938 8.390625 -10.816406 8.578125 -10.359375 C 8.765625 -9.898438 8.859375 -9.398438 8.859375 -8.859375 Z M 6.1875 -9 C 6.1875 -9.414062 6.066406 -9.75 5.828125 -10 C 5.585938 -10.257812 5.25 -10.390625 4.8125 -10.390625 C 4.375 -10.390625 4.035156 -10.257812 3.796875 -10 C 3.554688 -9.75 3.4375 -9.414062 3.4375 -9 L 3.4375 -3.3125 C 3.4375 -2.894531 3.554688 -2.554688 3.796875 -2.296875 C 4.035156 -2.046875 4.375 -1.921875 4.8125 -1.921875 C 5.25 -1.921875 5.585938 -2.046875 5.828125 -2.296875 C 6.066406 -2.554688 6.1875 -2.894531 6.1875 -3.3125 Z M 6.1875 -9 "/></g></g></g><g fill="#57534e" fill-opacity="1"><g transform="translate(45.550929, 27.114709)"><g><path d="M 8.5625 -2.828125 C 8.5625 -1.941406 8.289062 -1.25 7.75 -0.75 C 7.21875 -0.25 6.453125 0 5.453125 0 L 0.890625 0 L 0.890625 -12.3125 L 5.390625 -12.3125 C 6.390625 -12.3125 7.15625 -12.0625 7.6875 -11.5625 C 8.21875 -11.0625 8.484375 -10.367188 8.484375 -9.484375 L 8.484375 -8.59375 C 8.484375 -8 8.351562 -7.492188 8.09375 -7.078125 C 7.832031 -6.671875 7.390625 -6.410156 6.765625 -6.296875 C 7.421875 -6.160156 7.882812 -5.882812 8.15625 -5.46875 C 8.425781 -5.0625 8.5625 -4.578125 8.5625 -4.015625 Z M 5.96875 -9.234375 C 5.96875 -9.546875 5.894531 -9.789062 5.75 -9.96875 C 5.613281 -10.144531 5.375 -10.234375 5.03125 -10.234375 L 3.546875 -10.234375 L 3.546875 -7.09375 L 4.921875 -7.09375 C 5.617188 -7.09375 5.96875 -7.453125 5.96875 -8.171875 Z M 6.03125 -4.171875 C 6.03125 -4.898438 5.675781 -5.265625 4.96875 -5.265625 L 3.546875 -5.265625 L 3.546875 -2.0625 L 5.078125 -2.0625 C 5.421875 -2.0625 5.664062 -2.148438 5.8125 -2.328125 C 5.957031 -2.503906 6.03125 -2.742188 6.03125 -3.046875 Z M 6.03125 -4.171875 "/></g></g></g><g fill="#57534e" fill-opacity="1"><g transform="translate(54.788635, 27.114709)"><g><path d="M 0.890625 0 L 0.890625 -12.3125 L 7.75 -12.3125 L 7.75 -10.09375 L 3.53125 -10.09375 L 3.53125 -7.390625 L 6.4375 -7.390625 L 6.4375 -5.390625 L 3.53125 -5.390625 L 3.53125 -2.3125 L 7.75 -2.3125 L 7.75 0 Z M 0.890625 0 "/></g></g></g><g fill="#57534e" fill-opacity="1"><g transform="translate(63.047146, 27.114709)"><g><path d="M 0.890625 0 L 0.890625 -12.3125 L 7.75 -12.3125 L 7.75 -10.09375 L 3.53125 -10.09375 L 3.53125 -7.390625 L 6.4375 -7.390625 L 6.4375 -5.390625 L 3.53125 -5.390625 L 3.53125 -2.3125 L 7.75 -2.3125 L 7.75 0 Z M 0.890625 0 "/></g></g></g><g clip-path="url(#24064d24b4)"><path fill="#57534e" d="M 66.675781 6.445312 C 66.675781 6.417969 66.675781 6.390625 66.675781 6.363281 C 66.601562 4.542969 65.003906 3.234375 63.386719 2.941406 C 61.171875 2.539062 58.226562 4.039062 58.742188 6.710938 C 59.019531 8.140625 60.007812 9.4375 61.414062 9.835938 C 61.800781 9.945312 62.238281 10.015625 62.636719 10.015625 C 63.480469 10.015625 64.144531 9.566406 64.917969 10.140625 C 65.144531 10.308594 65.375 10.894531 65.734375 10.765625 C 65.996094 10.667969 66.050781 10.125 66.070312 9.898438 C 66.160156 8.734375 66.699219 7.617188 66.675781 6.445312 Z M 66.675781 6.445312 " fill-opacity="1" fill-rule="nonzero"/></g><path fill="#ffffff" d="M 60.265625 6.460938 C 60.265625 6.609375 60.316406 6.730469 60.417969 6.835938 C 60.519531 6.9375 60.640625 6.992188 60.785156 6.992188 C 60.925781 6.992188 61.046875 6.9375 61.148438 6.835938 C 61.25 6.730469 61.300781 6.609375 61.300781 6.460938 C 61.300781 6.316406 61.25 6.191406 61.148438 6.085938 C 61.046875 5.984375 60.925781 5.933594 60.785156 5.933594 C 60.640625 5.933594 60.519531 5.984375 60.417969 6.085938 C 60.316406 6.191406 60.265625 6.316406 60.265625 6.460938 Z M 60.265625 6.460938 " fill-opacity="1" fill-rule="nonzero"/><path fill="#ffffff" d="M 62.09375 6.460938 C 62.09375 6.609375 62.144531 6.730469 62.246094 6.835938 C 62.347656 6.9375 62.46875 6.992188 62.609375 6.992188 C 62.753906 6.992188 62.875 6.9375 62.976562 6.835938 C 63.078125 6.730469 63.128906 6.609375 63.128906 6.460938 C 63.128906 6.316406 63.078125 6.191406 62.976562 6.085938 C 62.875 5.984375 62.753906 5.933594 62.609375 5.933594 C 62.46875 5.933594 62.347656 5.984375 62.246094 6.085938 C 62.144531 6.191406 62.09375 6.316406 62.09375 6.460938 Z M 62.09375 6.460938 " fill-opacity="1" fill-rule="nonzero"/><path fill="#ffffff" d="M 63.824219 6.460938 C 63.824219 6.609375 63.875 6.730469 63.976562 6.835938 C 64.078125 6.9375 64.199219 6.992188 64.339844 6.992188 C 64.484375 6.992188 64.605469 6.9375 64.707031 6.835938 C 64.808594 6.730469 64.859375 6.609375 64.859375 6.460938 C 64.859375 6.316406 64.808594 6.191406 64.707031 6.085938 C 64.605469 5.984375 64.484375 5.933594 64.339844 5.933594 C 64.199219 5.933594 64.078125 5.984375 63.976562 6.085938 C 63.875 6.191406 63.824219 6.316406 63.824219 6.460938 Z M 63.824219 6.460938 " fill-opacity="1" fill-rule="nonzero"/><g clip-path="url(#0f80f50984)"><path fill="#0c0a09" d="M 62.339844 9.933594 C 62.339844 9.90625 62.34375 9.878906 62.34375 9.855469 C 62.414062 8.035156 64.015625 6.722656 65.632812 6.429688 C 67.847656 6.03125 70.792969 7.53125 70.277344 10.203125 C 70 11.632812 69.007812 12.929688 67.605469 13.324219 C 67.21875 13.433594 66.78125 13.507812 66.378906 13.507812 C 65.539062 13.507812 64.875 13.058594 64.101562 13.628906 C 63.875 13.796875 63.640625 14.382812 63.28125 14.253906 C 63.019531 14.160156 62.964844 13.617188 62.949219 13.390625 C 62.855469 12.226562 62.320312 11.105469 62.339844 9.933594 Z M 62.339844 9.933594 " fill-opacity="1" fill-rule="nonzero"/></g><path fill="#ffffff" d="M 67.71875 9.953125 C 67.71875 10.097656 67.769531 10.222656 67.871094 10.324219 C 67.96875 10.429688 68.09375 10.480469 68.234375 10.480469 C 68.378906 10.480469 68.5 10.429688 68.601562 10.324219 C 68.703125 10.222656 68.753906 10.097656 68.753906 9.953125 C 68.753906 9.804688 68.703125 9.679688 68.601562 9.578125 C 68.5 9.472656 68.378906 9.421875 68.234375 9.421875 C 68.09375 9.421875 67.96875 9.472656 67.871094 9.578125 C 67.769531 9.679688 67.71875 9.804688 67.71875 9.953125 Z M 67.71875 9.953125 " fill-opacity="1" fill-rule="nonzero"/><path fill="#ffffff" d="M 65.890625 9.953125 C 65.890625 10.097656 65.941406 10.222656 66.042969 10.328125 C 66.144531 10.429688 66.265625 10.480469 66.40625 10.480469 C 66.550781 10.480469 66.671875 10.429688 66.773438 10.328125 C 66.875 10.222656 66.925781 10.097656 66.925781 9.953125 C 66.925781 9.804688 66.875 9.679688 66.773438 9.578125 C 66.671875 9.472656 66.550781 9.421875 66.40625 9.421875 C 66.265625 9.421875 66.144531 9.472656 66.042969 9.578125 C 65.941406 9.679688 65.890625 9.804688 65.890625 9.953125 Z M 65.890625 9.953125 " fill-opacity="1" fill-rule="nonzero"/><path fill="#ffffff" d="M 64.160156 9.953125 C 64.160156 10.097656 64.210938 10.222656 64.3125 10.324219 C 64.410156 10.429688 64.535156 10.480469 64.675781 10.480469 C 64.820312 10.480469 64.941406 10.429688 65.042969 10.324219 C 65.144531 10.222656 65.195312 10.097656 65.195312 9.953125 C 65.195312 9.804688 65.144531 9.679688 65.042969 9.578125 C 64.941406 9.472656 64.820312 9.421875 64.675781 9.421875 C 64.535156 9.421875 64.410156 9.472656 64.3125 9.578125 C 64.210938 9.679688 64.160156 9.804688 64.160156 9.953125 Z M 64.160156 9.953125 " fill-opacity="1" fill-rule="nonzero"/></svg>